<?xml version="1.0" standalone="no"?>
<!DOCTYPE svg PUBLIC "-//W3C//DTD SVG 20010904//EN"
 "http://www.w3.org/TR/2001/REC-SVG-20010904/DTD/svg10.dtd">
<svg version="1.0" xmlns="http://www.w3.org/2000/svg"
 width="500.000000pt" height="500.000000pt" viewBox="0 0 500.000000 500.000000"
 preserveAspectRatio="xMidYMid meet">
<metadata>
Created by potrace 1.14, written by Peter Selinger 2001-2017
</metadata>
<g transform="translate(0.000000,500.000000) scale(0.100000,-0.100000)"
fill="#000000" stroke="none">
<path d="M2339 4996 c-2 -2 -24 -6 -49 -9 -268 -35 -548 -175 -746 -371 -117
-118 -192 -236 -262 -416 -70 -182 -85 -418 -42 -675 36 -221 36 -247 0 -350
-52 -148 -123 -271 -222 -390 -9 -11 -76 -92 -148 -180 -72 -88 -139 -169
-148 -180 -9 -11 -44 -54 -76 -95 -126 -159 -219 -231 -442 -340 -99 -49 -152
-81 -174 -107 -30 -33 -32 -41 -28 -90 6 -68 29 -100 99 -136 65 -33 220 -82
309 -98 69 -12 252 -15 310 -4 68 11 161 47 210 80 41 27 50 31 51 17 5 -156
18 -265 45 -387 9 -38 18 -83 21 -98 11 -65 67 -219 119 -325 47 -94 69 -126
137 -197 l82 -84 -31 -43 c-45 -61 -104 -180 -111 -222 -11 -67 41 -110 143
-120 27 -2 92 -5 144 -6 l95 -1 43 -55 c111 -140 218 -148 339 -24 l48 49 53
-30 c114 -62 227 -83 268 -48 33 27 44 74 40 171 -2 65 -9 106 -23 138 l-20
45 66 15 c57 14 73 14 121 2 30 -8 56 -15 58 -17 2 -1 -6 -30 -18 -64 -13 -40
-20 -86 -20 -138 0 -178 81 -213 275 -120 l93 45 33 -36 c83 -88 161 -118 232
-89 34 15 117 89 147 133 14 19 27 22 140 27 212 9 268 36 256 124 -6 44 -52
137 -113 228 l-33 50 33 24 c54 42 116 110 144 159 14 26 32 54 38 62 17 21
79 181 104 265 26 90 42 161 56 245 4 25 9 53 11 64 7 36 17 161 18 213 1 53
13 66 35 39 16 -19 115 -62 186 -81 60 -16 253 -23 311 -11 16 3 45 8 64 11
80 13 196 51 273 89 97 49 120 80 113 161 -5 66 -34 91 -220 183 -149 74 -271
157 -341 233 -23 24 -86 100 -140 169 -55 69 -102 127 -105 130 -19 16 -264
326 -301 380 -59 84 -84 133 -126 250 -39 108 -43 164 -19 280 9 40 14 75 12
78 -2 2 0 18 5 35 26 91 28 345 3 482 -23 126 -133 368 -214 470 -178 224
-479 404 -785 471 -73 15 -413 32 -426 20z m-174 -670 c96 -11 204 -52 297
-113 l37 -25 53 34 c111 72 241 110 380 110 48 0 91 -3 95 -5 5 -3 27 -8 51
-12 95 -14 232 -87 320 -169 50 -46 119 -146 151 -218 58 -128 73 -308 37
-447 -22 -84 -77 -193 -132 -257 l-43 -51 23 -34 c45 -67 108 -185 146 -275
63 -146 86 -223 126 -418 25 -124 25 -458 -1 -601 -3 -16 -10 -57 -16 -90 -34
-195 -132 -436 -250 -615 -77 -115 -253 -295 -359 -365 -318 -211 -699 -239
-1032 -75 -297 147 -534 431 -669 800 -31 85 -74 254 -84 326 -2 22 -8 62 -12
89 -10 66 -10 374 0 450 32 263 138 559 271 756 l35 53 -32 32 c-49 50 -105
150 -134 239 -21 65 -27 102 -29 200 -1 66 1 125 4 130 4 6 8 21 10 34 6 48
52 152 96 218 88 135 215 231 366 276 55 17 188 35 225 31 11 -1 43 -5 70 -8z"/>
<path d="M2027 3880 c-138 -41 -165 -236 -45 -321 89 -64 218 14 223 135 4 78
-28 142 -85 171 -40 20 -63 24 -93 15z"/>
<path d="M2888 3866 c-72 -38 -110 -148 -78 -230 15 -41 62 -83 106 -96 35
-11 46 -10 77 5 78 37 113 99 105 186 -6 57 -38 109 -84 134 -48 26 -79 26
-126 1z"/>
<path d="M2307 3454 c-1 -1 -51 -4 -112 -8 -229 -14 -305 -47 -305 -134 0
-102 166 -261 385 -370 173 -85 255 -92 400 -32 252 105 459 303 432 412 -26
101 -146 129 -575 132 -122 1 -223 2 -225 0z"/>
</g>
</svg>
